<svg width="32" height="32" viewBox="0 0 16 16" fill="none" xmlns="http://www.w3.org/2000/svg">
<path d="M8 0C3.58 0 0 3.582 0 8c0 3.535 2.281 6.533 5.457 7.59.4.074.547-.173.547-.384 0-.19-.007-.693-.01-1.357-2.225.48-2.695-1.072-2.695-1.072-.364-.927-.889-1.175-.889-1.175-.726-.496.055-.487.055-.487.803.057 1.226.82 1.226.82.714 1.22 1.873.868 2.33.664.072-.517.278-.868.505-1.068-1.77-.2-3.633-.885-3.633-3.95 0-.873.312-1.587.82-2.145-.083-.2-.36-1.015.078-2.118 0 0 .672-.215 2.2.82.637-.178 1.32-.266 2-.27.68.004 1.364.092 2 .27 1.523-1.035 2.195-.82 2.195-.82.44 1.103.163 1.918.08 2.118.51.558.818 1.272.818 2.145 0 3.072-1.868 3.747-3.643 3.943.287.248.54.735.54 1.48 0 1.07-.01 1.93-.01 2.19 0 .214.145.464.55.383C13.72 14.53 16 11.53 16 8c0-4.418-3.582-8-8-8z" fill="white"/>
</svg>
